<svg xmlns="http://www.w3.org/2000/svg" xmlns:xlink="http://www.w3.org/1999/xlink" width="500" zoomAndPan="magnify" viewBox="0 0 375 374.999991" height="500" preserveAspectRatio="xMidYMid meet" version="1.0"><defs><clipPath id="addef1dc2d"><path d="M 130 187 L 245 187 L 245 340.511719 L 130 340.511719 Z M 130 187 " clip-rule="nonzero"/></clipPath><clipPath id="df69ab7a16"><path d="M 130 34.511719 L 245 34.511719 L 245 188 L 130 188 Z M 130 34.511719 " clip-rule="nonzero"/></clipPath><clipPath id="7b778ee3aa"><path d="M 34.511719 130 L 188 130 L 188 245 L 34.511719 245 Z M 34.511719 130 " clip-rule="nonzero"/></clipPath><clipPath id="f2abc0744b"><path d="M 187 130 L 340.511719 130 L 340.511719 245 L 187 245 Z M 187 130 " clip-rule="nonzero"/></clipPath></defs><g clip-path="url(#addef1dc2d)"><path fill="#000000" d="M 220.84375 340.355469 L 154.101562 340.355469 C 141.21875 340.355469 130.679688 329.816406 130.679688 316.933594 L 130.679688 284.539062 L 146.292969 284.539062 L 146.292969 316.933594 C 146.292969 321.230469 149.804688 324.742188 154.101562 324.742188 L 220.84375 324.742188 C 225.136719 324.742188 228.648438 321.230469 228.648438 316.933594 L 228.648438 187.511719 L 244.261719 187.511719 L 244.261719 316.933594 C 244.261719 329.816406 233.800781 340.355469 220.84375 340.355469 Z M 220.84375 340.355469 " fill-opacity="1" fill-rule="nonzero"/></g><g clip-path="url(#df69ab7a16)"><path fill="#000000" d="M 146.292969 187.511719 L 130.679688 187.511719 L 130.679688 58.085938 C 130.679688 45.203125 141.21875 34.667969 154.101562 34.667969 L 220.84375 34.667969 C 233.722656 34.667969 244.261719 45.203125 244.261719 58.085938 L 244.261719 90.480469 L 228.648438 90.480469 L 228.648438 58.085938 C 228.648438 53.792969 225.136719 50.277344 220.84375 50.277344 L 154.101562 50.277344 C 149.804688 50.277344 146.292969 53.792969 146.292969 58.085938 Z M 146.292969 187.511719 " fill-opacity="1" fill-rule="nonzero"/></g><g clip-path="url(#7b778ee3aa)"><path fill="#000000" d="M 187.511719 244.339844 L 58.085938 244.339844 C 45.203125 244.339844 34.667969 233.800781 34.667969 220.921875 L 34.667969 154.179688 C 34.667969 141.296875 45.203125 130.757812 58.085938 130.757812 L 90.480469 130.757812 L 90.480469 146.371094 L 58.085938 146.371094 C 53.792969 146.371094 50.277344 149.882812 50.277344 154.179688 L 50.277344 220.921875 C 50.277344 225.214844 53.792969 228.726562 58.085938 228.726562 L 187.511719 228.726562 Z M 187.511719 244.339844 " fill-opacity="1" fill-rule="nonzero"/></g><g clip-path="url(#f2abc0744b)"><path fill="#000000" d="M 316.933594 244.339844 L 284.539062 244.339844 L 284.539062 228.726562 L 316.933594 228.726562 C 321.230469 228.726562 324.742188 225.214844 324.742188 220.921875 L 324.742188 154.179688 C 324.742188 149.882812 321.230469 146.371094 316.933594 146.371094 L 187.511719 146.371094 L 187.511719 130.757812 L 316.933594 130.757812 C 329.816406 130.757812 340.355469 141.296875 340.355469 154.179688 L 340.355469 220.921875 C 340.355469 233.800781 329.816406 244.339844 316.933594 244.339844 Z M 316.933594 244.339844 " fill-opacity="1" fill-rule="nonzero"/></g></svg>